<svg xmlns="http://www.w3.org/2000/svg" viewBox="0 0 500 500"><g id="freepik--background-complete--inject-32"><rect y="382.4" width="500" height="0.25" style="fill:#ebebeb"></rect><rect x="429.83" y="398.49" width="20.07" height="0.25" style="fill:#ebebeb"></rect><rect x="357.48" y="394.99" width="32.02" height="0.25" style="fill:#ebebeb"></rect><rect x="274.19" y="389.21" width="36.98" height="0.25" style="fill:#ebebeb"></rect><rect x="75.46" y="396.57" width="43.19" height="0.25" style="fill:#ebebeb"></rect><rect x="60.22" y="396.57" width="6.33" height="0.25" style="fill:#ebebeb"></rect><rect x="131.75" y="389.08" width="37.48" height="0.25" style="fill:#ebebeb"></rect><path d="M237,337.8H43.91a5.71,5.71,0,0,1-5.7-5.71V60.66A5.71,5.71,0,0,1,43.91,55H237a5.71,5.71,0,0,1,5.71,5.71V332.09A5.71,5.71,0,0,1,237,337.8ZM43.91,55.2a5.46,5.46,0,0,0-5.45,5.46V332.09a5.46,5.46,0,0,0,5.45,5.46H237a5.47,5.47,0,0,0,5.46-5.46V60.66A5.47,5.47,0,0,0,237,55.2Z" style="fill:#ebebeb"></path><path d="M453.31,337.8H260.21a5.72,5.72,0,0,1-5.71-5.71V60.66A5.72,5.72,0,0,1,260.21,55h193.1A5.71,5.71,0,0,1,459,60.66V332.09A5.71,5.71,0,0,1,453.31,337.8ZM260.21,55.2a5.47,5.47,0,0,0-5.46,5.46V332.09a5.47,5.47,0,0,0,5.46,5.46h193.1a5.47,5.47,0,0,0,5.46-5.46V60.66a5.47,5.47,0,0,0-5.46-5.46Z" style="fill:#ebebeb"></path><path d="M430.23,330.7c-22.42,3-24.78,35.5-48.82,8.68-16.62-18.53-29.88.07-36.44,43H464.1C464,362.13,451.24,327.92,430.23,330.7Z" style="fill:#ebebeb"></path><path d="M272.47,307.87c-66,4.28-73,51.18-143.8,12.51-48.95-26.72-88,.1-107.33,62h350.9C372,353.18,334.36,303.85,272.47,307.87Z" style="fill:#ebebeb"></path><path d="M182.38,348.42c51.36,6.21,103.16-1.93,142.72-11.54s67.68,17.28,83,45.52H50.43C62.21,368.26,104.43,339,182.38,348.42Z" style="fill:#f0f0f0"></path><path d="M343.2,363.06c-59.37,2.45-72,3.41-117.61-2.06s-81.48,5.33-99.16,21.4H447.22C433.65,374.35,392.91,361,343.2,363.06Z" style="fill:#fafafa"></path><circle cx="79.73" cy="210.02" r="20.27" transform="translate(-14.57 6.13) rotate(-4.03)" style="fill:#f0f0f0"></circle><path d="M445.84,130.49H342s1.5-8.22,20.71-7.75c-3.82-12,6.93-25.1,31.19-25.61s15.73,19,15.73,19,40.76-7,28.42,7.52C458.28,124.38,462.28,127,445.84,130.49Z" style="fill:#f0f0f0"></path><path d="M92.38,225.64c-3.39-16.9,25.48-35.4,78.63-36.11s26.49,26.83,26.49,26.83,91.85-9.94,58.94,10.61c43.8,1,51.45,4.64,14.11,9.61H44S50.65,225,92.38,225.64Z" style="fill:#fafafa"></path><path d="M181.32,130.22H73.76s-24-13.78,4.45-15.55c-4.89-11.78,7.12-31.76,49.11-32.23s20.22,27.11,20.22,27.11,64-18.44,41.56,10.89C198.87,120.44,233.76,130.22,181.32,130.22Z" style="fill:#f5f5f5"></path><path d="M396.34,261H348s-10.79-6.19,2-7c-2.19-5.3,3.2-14.27,22.07-14.48s9.09,12.18,9.09,12.18,28.76-8.29,18.67,4.89C404.23,256.62,419.9,261,396.34,261Z" style="fill:#f5f5f5"></path><path d="M291.24,88.25s13.63-8.74,23.12,3.68c-7.79-7.72-22.6.06-22.6.06s-16.95-7.7-22.6.06C275.2,79.58,291.24,88.25,291.24,88.25Z" style="fill:#f0f0f0"></path><path d="M325.39,187.42s8.21-5.26,13.92,2.22c-4.69-4.65-13.6,0-13.6,0s-10.21-4.63-13.61,0C315.74,182.2,325.39,187.42,325.39,187.42Z" style="fill:#f0f0f0"></path><path d="M175.87,65.52s4.11-2.63,7,1.11c-2.34-2.32-6.8,0-6.8,0s-5.1-2.32-6.8,0C171.05,62.91,175.87,65.52,175.87,65.52Z" style="fill:#f5f5f5"></path><path d="M75.58,155.31s4.1-2.63,7,1.11c-2.35-2.33-6.8,0-6.8,0s-5.11-2.31-6.81,0C70.75,152.7,75.58,155.31,75.58,155.31Z" style="fill:#f5f5f5"></path></g><g id="freepik--Shadow--inject-32"><ellipse id="freepik--path--inject-32" cx="250" cy="416.24" rx="193.89" ry="11.32" style="fill:#f5f5f5"></ellipse></g><g id="freepik--character-2--inject-32"><path d="M288.8,213c-.65-10.22-7.72-9.38-6.39-6.28-1.25-1.16-4.39-2.6-7.69-3.33-4.75-1.05-7.92.22-6.75,2-7.39.45-8.89,7.14-6.5,8.5-5.06,2.22-5.8,10.27,2,12.22s5.06,10.06,12.12,12.06,15.11-4.72,13.94-7.72c3-2,6.73-4.09,3.89-10.36C299.49,217.75,291.18,212.84,288.8,213Z" style="fill:#263238"></path><path d="M271.26,408.73c-1,.09-2,0-2.41-.4a.72.72,0,0,1-.06-.83.93.93,0,0,1,.56-.5c1.31-.49,4.26.86,4.39.92a.19.19,0,0,1,0,.36A15.16,15.16,0,0,1,271.26,408.73Zm-1.41-1.45a1.34,1.34,0,0,0-.37.08.54.54,0,0,0-.34.3c-.12.25-.06.36,0,.42.42.49,2.45.32,3.93,0A8.65,8.65,0,0,0,269.85,407.28Z" style="fill:#FFD700"></path><path d="M273.68,408.28a.11.11,0,0,1-.08,0c-1-.34-3.09-1.91-3-2.83,0-.22.14-.5.66-.6a1.42,1.42,0,0,1,1.09.23c1.1.75,1.51,2.9,1.53,3a.22.22,0,0,1-.07.18A.21.21,0,0,1,273.68,408.28Zm-2.26-3.08-.12,0c-.34.06-.35.2-.35.24,0,.56,1.39,1.81,2.44,2.31a4.5,4.5,0,0,0-1.29-2.38A1,1,0,0,0,271.42,405.2Z" style="fill:#FFD700"></path><polygon points="283.4 411.63 275.36 412.35 272.87 393.8 280.91 393.07 283.4 411.63" style="fill:#b55b52"></polygon><path d="M274.43,407.08l8.78-.79a.71.71,0,0,1,.74.49l2.23,7a1.18,1.18,0,0,1-1,1.54c-3.17.23-6,.31-9.94.67-4.66.42-3.43.87-8.88,1.44-3.3.34-4.23-3.35-2.85-3.66,6.32-1.38,6.81-3.37,9.07-5.88A2.84,2.84,0,0,1,274.43,407.08Z" style="fill:#263238"></path><path d="M256.67,261.31l-1-.1-.85-.11c-.55-.06-1.08-.17-1.62-.26-1.07-.19-2.11-.43-3.14-.68a61.36,61.36,0,0,1-6-1.85,65.68,65.68,0,0,1-11.32-5.4l-1.34-.83-.66-.41-.37-.23a7.26,7.26,0,0,1-.65-.49c-.19-.16-.36-.32-.49-.45l-.37-.4a9,9,0,0,1-.92-1.3c-.23-.39-.4-.72-.56-1.05-.29-.64-.51-1.23-.71-1.79a40.22,40.22,0,0,1-1.53-6.25,72.11,72.11,0,0,1-1.08-12l5.95-1.15c1.49,3.52,2.82,7.15,4.23,10.56.34.85.7,1.69,1.07,2.49s.71,1.58,1.07,2.24c.19.32.37.62.52.83a1,1,0,0,0,.18.2s.05,0-.06-.14l-.12-.14a1.53,1.53,0,0,0-.22-.21,4.27,4.27,0,0,0-.36-.28c-.24-.15-.09-.06-.06,0l.61.29,1.2.58a76.81,76.81,0,0,0,9.9,3.81c1.68.53,3.38,1,5.06,1.4.85.2,1.69.38,2.52.55l1.23.24,1,.17Z" style="fill:#b65b52"></path><path d="M266.21,263.29c-8.62,5.51-21.26-.64-21.26-.64-1.51-5.45-2.34-15.12-2.34-18.91,0,0,14.62,1.79,24.57.86C276.9,243.69,273.29,258.77,266.21,263.29Z" style="fill:#FFD700"></path><path d="M230.05,231.33l2.31-6.23-8.81-1.88s-1.62,4.95,1.71,8.63Z" style="fill:#b55b52"></path><path d="M229.62,218.4l-4,.43a2,2,0,0,0-1.8,1.81l-.28,2.58,8.81,1.88-.5-4.89A2,2,0,0,0,229.62,218.4Z" style="fill:#b55b52"></path><path d="M251,255c-.45,7.64,0,23.33,5.6,52.14l43-3.89c-.27-6.1-5.4-24-3.47-51.44a7.43,7.43,0,0,0-7.12-8c-2.12-.07-4.47-.09-6.77,0A159.74,159.74,0,0,0,264,245.46c-2.33.43-4.59,1-6.53,1.54A8.84,8.84,0,0,0,251,255Z" style="fill:#FFD700"></path><path d="M275.84,272.32c.19,7.07-3.82,12.76-8.95,12.71s-9.46-5.84-9.65-12.91,3.82-12.77,9-12.71S275.65,265.24,275.84,272.32Z" style="opacity:0.1"></path><path d="M277.34,230.09c0,5.66.92,12.16,4.42,14.69a66.55,66.55,0,0,1-16,10.11c-6.21-4.39-3.34-8-3.34-8,5.43-3,5.05-7.11,3.35-11.54l8.09-7.12C275.18,226.86,277.34,228,277.34,230.09Z" style="fill:#b55b52"></path><path d="M277.35,230.09c0-2.08-2.17-3.22-3.51-1.88l-8.1,7.12a12,12,0,0,1,1,6.18,11.89,11.89,0,0,0,5.51-1.15,12.26,12.26,0,0,0,5.4-4.76A42.44,42.44,0,0,1,277.35,230.09Z" style="opacity:0.2"></path><path d="M285.59,222.83c-2.81,7.55-4.07,12.11-9.24,14.85-7.79,4.12-16.44-2.35-16-10.59.4-7.43,4.94-18.52,13.58-19.24A11.19,11.19,0,0,1,285.59,222.83Z" style="fill:#b55b52"></path><path d="M283.36,213.08c-4,3.16-3,8.2-.69,8.28-3.56,2.88-2.56,6.59.35,6.27C288,227.09,291.37,212.18,283.36,213.08Z" style="fill:#263238"></path><path d="M285.58,213.65c-3.89,1.53-6.92-.14-7.08-2.27-2.89,1.44-14.78-.21-12.06-1.93C268.5,205.78,278.71,203.8,285.58,213.65Z" style="fill:#263238"></path><path d="M262.74,225.76l9.61,1s-1.17,3-5.65,2.49C263,228.83,262.74,225.76,262.74,225.76Z" style="fill:#fff"></path><path d="M273.36,219.49c-.34.63-.95.95-1.36.73s-.46-.91-.12-1.53.94-.95,1.35-.73S273.7,218.87,273.36,219.49Z" style="fill:#263238"></path><path d="M266,217.13c-.34.63-.94,1-1.35.73s-.47-.91-.13-1.53.95-1,1.36-.73S266.3,216.51,266,217.13Z" style="fill:#263238"></path><path d="M276.94,218.23a.44.44,0,0,1-.29-.34A3.29,3.29,0,0,0,275,215.4a.43.43,0,0,1-.21-.56.4.4,0,0,1,.55-.2,4.12,4.12,0,0,1,2.17,3.13.41.41,0,0,1-.35.47A.39.39,0,0,1,276.94,218.23Z" style="fill:#263238"></path><path d="M263.85,213.86a.46.46,0,0,1-.21-.16.42.42,0,0,1,.1-.58,4.1,4.1,0,0,1,3.75-.63.41.41,0,0,1,.24.54.42.42,0,0,1-.54.23h0a3.35,3.35,0,0,0-3,.54A.44.44,0,0,1,263.85,213.86Z" style="fill:#263238"></path><path d="M267.55,218.12a21.59,21.59,0,0,1-4.82,3.5,3.49,3.49,0,0,0,2.41,1.72Z" style="fill:#a02724"></path><path d="M286,230.23a6.08,6.08,0,0,1-4.21,2.31c-2,.19-2.61-2.51-1.48-4.44,1-1.74,3.1-3.4,5-3.09S287.68,228,286,230.23Z" style="fill:#b55b52"></path><polygon points="272.87 393.81 274.27 404.24 282.31 403.51 280.92 393.08 272.87 393.81" style="opacity:0.2"></polygon><path d="M256.63,307.11a218.56,218.56,0,0,0,1.07,44.48c3.22,25.43,12.62,48.13,12.62,48.13l13.39-3.51s-3.12-19.08-4.78-44.19c-1.81-27.38,6-47.47,6-47.47Z" style="fill:#263238"></path><path d="M280.24,318c-7,2.2-4.34,14.06-1.51,22a127.92,127.92,0,0,1,2.53-22Z" style="opacity:0.30000000000000004"></path><path d="M327.73,391.83c-.72.75-1.51,1.38-2.08,1.3a.74.74,0,0,1-.59-.59,1,1,0,0,1,.09-.75c.67-1.22,3.78-2.15,3.91-2.19a.21.21,0,0,1,.21.07.2.2,0,0,1,0,.22A13.61,13.61,0,0,1,327.73,391.83Zm-2-.16a1.43,1.43,0,0,0-.22.3.59.59,0,0,0-.07.46c.08.26.2.31.28.32.64.09,2.06-1.38,2.95-2.61A8.63,8.63,0,0,0,325.71,391.67Z" style="fill:#FFD700"></path><path d="M329.26,389.92l-.07,0c-1,.4-3.59.59-4.14-.15-.14-.17-.22-.47.1-.88a1.4,1.4,0,0,1,1-.54c1.32-.16,3,1.19,3.12,1.24a.21.21,0,0,1,.07.18A.37.37,0,0,1,329.26,389.92Zm-3.73-.84-.08.08c-.21.28-.13.39-.1.42.34.44,2.23.45,3.35.14a4.48,4.48,0,0,0-2.53-1A1,1,0,0,0,325.53,389.08Z" style="fill:#FFD700"></path><polygon points="338.75 385.84 333.36 391.86 318.89 379.98 324.28 373.96 338.75 385.84" style="fill:#b55b52"></polygon><path d="M329,388.52l6.09-6.37A.71.71,0,0,1,336,382l6.29,3.81a1.18,1.18,0,0,1,.23,1.84c-2.24,2.26-5.55,5.45-8.32,8.34-3.23,3.37-.93,1.34-4.72,5.3-2.3,2.4-5.35.74-4.61-.47,3.37-5.52,3.21-7.12,3.26-10.49A2.79,2.79,0,0,1,329,388.52Z" style="fill:#263238"></path><polygon points="318.9 379.98 327.03 386.66 332.42 380.64 324.29 373.96 318.9 379.98" style="opacity:0.2"></polygon><path d="M271.89,305.73s5.92,23.71,17.16,44.53c12.3,22.8,32.16,35.81,32.16,35.81l9.52-10.27s-16.34-16.15-21.21-33.37c-7.43-26.28-9.87-39.21-9.87-39.21Z" style="fill:#263238"></path><path d="M316.23,383.71c0,.05,6.4,4.67,6.4,4.67l10.15-11.84-3.56-3.64Z" style="fill:#FFD700"></path><path d="M267.82,395.93c-.06,0,2,6.82,2,6.82l16-2.34-.87-5.31Z" style="fill:#FFD700"></path><path d="M299.85,253l.84,2.82.92,2.9c.62,1.92,1.29,3.82,2,5.66s1.47,3.62,2.29,5.25a21.89,21.89,0,0,0,2.57,4.06l.15.17.06.07-.1-.07a2.53,2.53,0,0,0-.31-.17,3.4,3.4,0,0,0-.58-.24,4,4,0,0,0-1.83-.1,3.35,3.35,0,0,0-1.35.56c-.48.38-.37.45-.28.35a3,3,0,0,0,.49-.65,29.94,29.94,0,0,0,2.19-5c1.36-3.77,2.51-7.91,3.72-11.92l6,.67a71.26,71.26,0,0,1-.76,13.49A33,33,0,0,1,314,278a13.32,13.32,0,0,1-1.1,2.15,9,9,0,0,1-2.49,2.68,7.09,7.09,0,0,1-6.25.91,7.26,7.26,0,0,1-1.31-.57,7.92,7.92,0,0,1-1-.62l-.41-.32-.24-.2-.44-.38a27.55,27.55,0,0,1-5.07-6.3A53.74,53.74,0,0,1,292.4,269c-.95-2.13-1.77-4.28-2.51-6.44-.36-1.08-.71-2.16-1-3.26s-.6-2.15-.89-3.39Z" style="fill:#b65b52"></path><path d="M311,258.31l-1.51-6.46,8.88.62s1.08,3.72-2.67,7Z" style="fill:#b55b52"></path><path d="M313.58,246l3.33,1.22a2.42,2.42,0,0,1,1.58,2.38l-.16,2.86-8.88-.62.94-4.11A2.42,2.42,0,0,1,313.58,246Z" style="fill:#b55b52"></path><path d="M292.45,244.48c9.67,3.35,12,17.76,12,17.76-2,3.48-8.46,7.26-13.89,10.14,0,0-3.25-2.81-6.69-12.19C280.5,251,284.51,241.72,292.45,244.48Z" style="fill:#FFD700"></path></g><g id="freepik--character-1--inject-32"><path d="M149.49,292.65c-7.22-42.63-10-96.13-10-96.13l38.35,10.8s-3.37,59.94-5,88.95c-1.65,30.16-3.38,98.92-3.38,98.92H151.22S145.49,329.94,149.49,292.65Z" style="fill:#263238"></path><path d="M143.87,250.49c1,9.19,2.12,18.82,3.47,28.27,3.54-14.44,5.53-41.79,5.53-41.79Z" style="opacity:0.30000000000000004"></path><path d="M152.76,407.21l-1.56,8.51a1.43,1.43,0,0,0,1.43,1.67c2.7,0,4-.43,8.69-.5,5.52-.09,10.13.6,16.6.5a2.87,2.87,0,0,0,1-5.63c-6.3-1.71-9.05-4.94-12-6.83-.62-3.06.89-11.48.89-11.48l-15.08,1A104,104,0,0,1,152.76,407.21Z" style="fill:#FFD700"></path><path d="M82.88,407.69l3.65-6.59C88.29,396.94,90.9,389,90.9,389l13.56,3.53s-3.74,6.79-4.59,10c2.08,2.42,4.88,7.86,10.72,9.18,2.74.62,2.54,5.4-1.09,5.72-6,.51-13.06-4.12-18.08-5.2-4.29-.93-4.91-.64-7.35-1.21A2.08,2.08,0,0,1,82.88,407.69Z" style="fill:#FFD700"></path><path d="M168.73,397.6l-16.8.27a1.36,1.36,0,0,1-1.37-1.19l-.73-5.55a1.36,1.36,0,0,1,1.31-1.53l18.29-.57a1.36,1.36,0,0,1,1.39,1.54l-.76,5.85A1.36,1.36,0,0,1,168.73,397.6Z" style="fill:#263238"></path><path d="M168.73,397.6l-16.8.27a1.36,1.36,0,0,1-1.37-1.19l-.73-5.55a1.36,1.36,0,0,1,1.31-1.53l18.29-.57a1.36,1.36,0,0,1,1.39,1.54l-.76,5.85A1.36,1.36,0,0,1,168.73,397.6Z" style="fill:#fff;opacity:0.1"></path><path d="M114.3,291.44c6.31-42.85,4.76-76.24,14-96.28l35.93,4.43s-17.79,66.68-25.92,95-32.24,97.9-32.24,97.9l-17.34-3.83S103.51,324.6,114.3,291.44Z" style="fill:#263238"></path><path d="M105.27,395.57,88.85,392a1.34,1.34,0,0,1-1-1.55l1-5.45a1.4,1.4,0,0,1,1.64-1.11l18,3.62a1.33,1.33,0,0,1,.94,1.88l-2.55,5.41A1.4,1.4,0,0,1,105.27,395.57Z" style="fill:#263238"></path><path d="M105.27,395.57,88.85,392a1.34,1.34,0,0,1-1-1.55l1-5.45a1.4,1.4,0,0,1,1.64-1.11l18,3.62a1.33,1.33,0,0,1,.94,1.88l-2.55,5.41A1.4,1.4,0,0,1,105.27,395.57Z" style="fill:#fff;opacity:0.1"></path><path d="M193.61,148.05c.8,6,1.58,12.15,2.46,18.17.42,3,.92,6,1.41,9s1.1,5.87,1.78,8.55c.17.66.35,1.29.54,1.9l.28.84.33.88c.48,1.17,1.05,2.38,1.69,3.59s1.35,2.42,2.12,3.63,1.57,2.42,2.42,3.61a172,172,0,0,0,11.28,14l.09.1a3.46,3.46,0,0,1-4.45,5.2,79.51,79.51,0,0,1-7.89-5.77,85.36,85.36,0,0,1-7.23-6.66,61.81,61.81,0,0,1-6.48-7.84,40.81,40.81,0,0,1-2.78-4.61l-.62-1.25L188,190c-.35-.87-.66-1.71-1-2.53-1.13-3.29-1.91-6.46-2.66-9.61s-1.34-6.3-1.92-9.43c-1.11-6.29-2-12.49-2.62-18.87A6.92,6.92,0,0,1,193.59,148Z" style="fill:#ff8b7b"></path><path d="M185.68,131.94c9,7.91,11.32,26.73,11.32,26.73-3.75,5.25-14.83,8-22.27,8.69,0,0-2-4.05-4.16-15.79C168.26,138.79,177.28,124.59,185.68,131.94Z" style="fill:#FFD700"></path><path d="M149,122.83A149.46,149.46,0,0,1,178.73,128c10.44,3,11.22,13.15,10.6,24-.92,16.32-7.28,25.42-9.68,64.42-6.64,3.45-36.91,2.41-56.11-9.5,2.61-15.24,11.35-40.88,12.87-72.9A11.78,11.78,0,0,1,149,122.83Z" style="fill:#FFD700"></path><path d="M171.94,138.51c-1.67.5-5.28-.47-5.78-2.53-5,.06-9,1.36-10.19,2.36-2.73-4.52-1.86-13.72-1.06-15.19s18.06,1.73,21.85,3.36a7.27,7.27,0,0,1,3.43,2.78c.57.8,3.19,6.41.5,10.55a40.56,40.56,0,0,0-3.95-2.94S176.43,139.4,171.94,138.51Z" style="fill:#FFD700"></path><path d="M171.94,138.51c-1.67.5-5.28-.47-5.78-2.53-5,.06-9,1.36-10.19,2.36-2.73-4.52-1.86-13.72-1.06-15.19s18.06,1.73,21.85,3.36a7.27,7.27,0,0,1,3.43,2.78c.57.8,3.19,6.41.5,10.55a40.56,40.56,0,0,0-3.95-2.94S176.43,139.4,171.94,138.51Z" style="fill:#fff;opacity:0.8"></path><path d="M165.05,103.9c-1.35,7.31-5,16.93-8,20.58,2.62,3.93,6.06,8.49,12.62,10.69.73.25,1.94,5.4,2.44,6.09a9.64,9.64,0,0,0,2-5.12c5.9.37,5.63-4.65,4.28-7.66-7.25-3.24-6.1-6.32-3.21-11.15Z" style="fill:#ff8b7b"></path><path d="M168.41,112.18a17.73,17.73,0,0,1,1-2.58l5.86,7.73a15.28,15.28,0,0,0-2.16,4.76C170.17,120.25,167.45,115.47,168.41,112.18Z" style="opacity:0.2"></path><path d="M170.64,90.05c-4.39,8.38-7.73,14.46-4.53,20.43,7,13.08,13.4,11.36,20.22,4.45,6.14-6.21,12.3-18.86,6.29-26.79A13,13,0,0,0,170.64,90.05Z" style="fill:#ff8b7b"></path><path d="M167.2,95.44c5.89,2.28,9.94-4.33,9.17-6.72,2.87,3.61,12.11,5.56,15,4.67.76,6.54,7.06,9.65,10.61,10-1.11-.58-3.11-2.43-2.89-3.7,6.17-.88,8.66-9.06,1.89-11.32S193.76,82,189.92,77.61c-4.55-5.22-15.67-4.78-14.69.33-4.14-3.33-11.7.43-9.47,5-8.69,2.54-3.12,14.88-1.28,16.1S167.2,95.44,167.2,95.44Z" style="fill:#263238"></path><path d="M198.27,100a4.58,4.58,0,0,0,4.28.72A5.16,5.16,0,0,1,200,99.18S198.27,99.28,198.27,100Z" style="fill:#263238"></path><path d="M176,80.39c-1.4-2.06-.56-8,1.05-9.28C172.39,71.38,171.7,77.06,176,80.39Z" style="fill:#263238"></path><path d="M180.3,101a5.6,5.6,0,0,0-3.49-2.48A11,11,0,0,0,180.3,101Z" style="opacity:0.2"></path><path d="M179.65,101.74a4.57,4.57,0,0,0-3.61-1.38A9,9,0,0,0,179.65,101.74Z" style="opacity:0.2"></path><path d="M175,106.19c-1-.48-2.15-.56-2.59,1.36A3.59,3.59,0,0,1,175,106.19Z" style="opacity:0.2"></path><path d="M184.33,110.06c1.26.85,3.64,3.93,2.58,6.63-2.72,0-10.87-4.41-12.78-7.81C174.62,106.38,180.94,107.76,184.33,110.06Z" style="fill:#263238"></path><path d="M187.05,103.41s-1.19,4.6-.88,7.45c-1.85.24-3.4-1.58-3.4-1.58Z" style="fill:#ff5652"></path><path d="M181.22,101.81c-.32.7-.21,1.44.25,1.64s1.09-.19,1.42-.89.21-1.43-.25-1.64S181.55,101.12,181.22,101.81Z" style="fill:#263238"></path><path d="M189.6,105.6c-.32.69-.21,1.43.25,1.63s1.09-.19,1.41-.89.21-1.43-.25-1.64S189.92,104.9,189.6,105.6Z" style="fill:#263238"></path><path d="M185.44,103c-1.07,2.53-3.4,4-5.21,3.24s-2.41-3.4-1.34-5.94" style="fill:#FFD700;opacity:0.5"></path><path d="M194.35,107c-1.07,2.54-3.4,4-5.21,3.24s-2.41-3.4-1.34-5.94" style="fill:#FFD700;opacity:0.5"></path><path d="M190.14,110.7a2.72,2.72,0,0,1-1.09-.22,3.07,3.07,0,0,1-1.68-1.76,6,6,0,0,1,.2-4.51c.23-.37.25-.65.08-.85a2.05,2.05,0,0,0-2-.2c-1.14,2.6-3.58,4.07-5.49,3.28a3.13,3.13,0,0,1-1.68-1.76,6,6,0,0,1,.11-4.31l-10.48-6.32a.26.26,0,0,1-.09-.35.26.26,0,0,1,.34-.08L179,100.06a.25.25,0,0,1,.11.31,5.55,5.55,0,0,0-.2,4.12,2.66,2.66,0,0,0,1.41,1.49c1.68.69,3.87-.7,4.88-3.11a.21.21,0,0,1,.13-.13A2.54,2.54,0,0,1,188,103a1.12,1.12,0,0,1,0,1.41,5.56,5.56,0,0,0-.18,4.09,2.62,2.62,0,0,0,1.41,1.49c1.68.69,3.87-.7,4.88-3.11a.25.25,0,0,1,.46.2C193.66,109.28,191.83,110.7,190.14,110.7Z" style="fill:#fff"></path><path d="M180.6,96.19a.49.49,0,0,1-.14-.18.46.46,0,0,1,.24-.6,4.55,4.55,0,0,1,4.14.18.46.46,0,0,1,.12.63.45.45,0,0,1-.62.12h0a3.67,3.67,0,0,0-3.28-.1A.47.47,0,0,1,180.6,96.19Z" style="fill:#263238"></path><path d="M194.49,102.8a.43.43,0,0,1-.28-.32,3.59,3.59,0,0,0-2-2.55.45.45,0,0,1,.32-.84,4.45,4.45,0,0,1,2.59,3.18.45.45,0,0,1-.34.54A.39.39,0,0,1,194.49,102.8Z" style="fill:#263238"></path><path d="M216.59,211.29l6,2.85a19.66,19.66,0,0,1,5.81,4.21l1.44,1.52c.73.77.41,2.26-.64,3.1l-3.9,3.11a1.89,1.89,0,0,1-2,.36l-3.74-1.92s-8-2.74-6.81-9.19Z" style="fill:#ff8b7b"></path><path d="M145,138.82l-9.5,13.62c-1.58,2.26-3.14,4.54-4.66,6.79s-3,4.54-4.21,6.64c-.33.54-.53,1-.81,1.47a6.37,6.37,0,0,0-.4.9,7.36,7.36,0,0,0-.35,2.32,19.68,19.68,0,0,0,1.3,6.36,68.62,68.62,0,0,0,7.19,13.72l.12.19a3.45,3.45,0,0,1-5.09,4.54,52,52,0,0,1-6.47-6.37,46.08,46.08,0,0,1-5.37-7.61,28.21,28.21,0,0,1-3.44-9.75,18.49,18.49,0,0,1,.1-6.06,16.85,16.85,0,0,1,.89-3.11c.32-.78.66-1.64,1-2.34,1.34-2.91,2.77-5.42,4.23-7.95s3-5,4.52-7.38c3.1-4.82,6.27-9.5,9.72-14.1A6.93,6.93,0,0,1,145,138.82Z" style="fill:#ff8b7b"></path><path d="M147.73,122.81c-16.12-.56-25,19.26-25,19.26,3.55,7.72,8.49,14.51,14.16,15.93,0,0,6.45-5.61,11.65-16.34C153,132.52,150.81,123.55,147.73,122.81Z" style="fill:#FFD700"></path><path d="M127.5,190.85l5.8-.51,2.29,3.47a23.45,23.45,0,0,1,3.66,9.45l.1.65a3.06,3.06,0,0,1-2.89,3.47l-4.05.32a3.48,3.48,0,0,1-3.6-2.38l-1.34-4.43S123.65,193.27,127.5,190.85Z" style="fill:#ff8b7b"></path><path d="M163.22,95.75a8.86,8.86,0,0,0,1,6.45c1.49,2.41,4.13,1.14,5.29-1.6,1.05-2.47,1.54-6.69-.72-8.12S163.84,92.93,163.22,95.75Z" style="fill:#ff8b7b"></path></g><g id="freepik--character-3--inject-32"><path d="M334.79,104.16c-10.69,14.72.13,31.63-9.87,29.28,2.55,10.47,16,10.9,18.82,8.34a12.58,12.58,0,0,1-4.23,4.91s22.28,2.7,27-9.76c2,2.64,9.51,3.14,12.06.68-2.14-.78-7.86-7.88-7-19.54.55-7.76.53-20.65-8.2-18.07C359.14,89.84,341.77,94.55,334.79,104.16Z" style="fill:#263238"></path><path d="M351.85,164.06c-.55,3.68-1.18,7.33-1.84,11s-1.35,7.3-2.09,10.94-1.5,7.29-2.32,10.93S344,204.16,342.88,208l.16-1a28.42,28.42,0,0,1-1.41,5.73c-.6,1.69-1.26,3.25-1.95,4.77a95.11,95.11,0,0,1-4.53,8.64c-1.62,2.76-3.32,5.43-5.1,8s-3.62,5.15-5.64,7.65a3.69,3.69,0,0,1-6.27-3.76l0,0,3.57-8.39c1.18-2.8,2.35-5.59,3.43-8.37s2.12-5.56,3-8.26c.43-1.34.82-2.68,1.1-3.95a17.22,17.22,0,0,0,.5-3.3,1.24,1.24,0,0,1,0-.27l.14-.72c.65-3.31,1.22-7,1.83-10.58l1.76-10.88c.58-3.63,1.2-7.27,1.81-10.9s1.26-7.27,2-10.88h0a7.38,7.38,0,0,1,14.55,2.49Z" style="fill:#7f3e3b"></path><path d="M318.15,238.45l-2.91,3.46a8.49,8.49,0,0,0-1.86,4l-.27,1.55a3.23,3.23,0,0,0,2,3.57l3.63,1.42a3.24,3.24,0,0,0,4.17-1.81l.64-1.61s3.22-5.86,2.46-11l-1.4-.44A7.29,7.29,0,0,0,318.15,238.45Z" style="fill:#7f3e3b"></path><path d="M339.16,155.36c-4.54,4-8.43,15.35-8.43,15.35s11.86,12.52,21.41,15.44c5.23-2.43,2.71-18.33,2.71-18.33Z" style="fill:#263238"></path><g style="opacity:0.4"><path d="M337.06,171.05a2.4,2.4,0,0,0,1.6-1.18,2.66,2.66,0,0,0,.11-2.23,3.54,3.54,0,0,0-3.23-2.31,3.36,3.36,0,0,0-.63.06,2.38,2.38,0,0,0-1.59,1.18,2.72,2.72,0,0,0-.12,2.24A3.49,3.49,0,0,0,337.06,171.05Z" style="fill:none"></path><path d="M336.44,171.66a3.55,3.55,0,0,0,.73-.08,2.93,2.93,0,0,0,2-1.45,3.27,3.27,0,0,0,.15-2.68,4,4,0,0,0-4.48-2.58,2.91,2.91,0,0,0-2,1.44,3.27,3.27,0,0,0-.15,2.68A4.13,4.13,0,0,0,336.44,171.66Zm-3.12-5.09a2.38,2.38,0,0,1,1.59-1.18,3.36,3.36,0,0,1,.63-.06,3.54,3.54,0,0,1,3.23,2.31,2.66,2.66,0,0,1-.11,2.23,2.4,2.4,0,0,1-1.6,1.18,3.49,3.49,0,0,1-3.86-2.24A2.72,2.72,0,0,1,333.32,166.57Z" style="fill:#fff"></path><path d="M347.21,162.65a2.56,2.56,0,0,1,.62-.07,3.88,3.88,0,0,1,.48,0l-.71-.56a3,3,0,0,0-.51.06,2.92,2.92,0,0,0-2,1.45,3.27,3.27,0,0,0-.15,2.68,4.12,4.12,0,0,0,3.75,2.66,3,3,0,0,0,.73-.08,2.89,2.89,0,0,0,2-1.44,3.13,3.13,0,0,0,.31-2l-.73-.58.06.13a2.68,2.68,0,0,1-.11,2.24,2.36,2.36,0,0,1-1.6,1.17,3.48,3.48,0,0,1-3.86-2.24,2.69,2.69,0,0,1,.12-2.23A2.38,2.38,0,0,1,347.21,162.65Z" style="fill:#fff"></path><path d="M339.76,178.64a2.56,2.56,0,0,1,.62-.07,3.56,3.56,0,0,1,3.23,2.31,3.13,3.13,0,0,1,.18,1l.53.35a3.59,3.59,0,0,0-.2-1.51,4,4,0,0,0-4.48-2.59,3.84,3.84,0,0,0-.6.2l.5.4Z" style="fill:#fff"></path><path d="M351.93,175.37a2.91,2.91,0,0,0-2,1.44,3.24,3.24,0,0,0-.14,2.68,4.11,4.11,0,0,0,3.75,2.67,3.63,3.63,0,0,0,.73-.08,3.54,3.54,0,0,0,.55-.18c.06-.23.11-.47.15-.7a2.42,2.42,0,0,1-.82.35,3.46,3.46,0,0,1-3.85-2.24,2.68,2.68,0,0,1,.11-2.24,2.36,2.36,0,0,1,1.6-1.17,2.56,2.56,0,0,1,.62-.07,3.52,3.52,0,0,1,2.76,1.45c0-.26,0-.52,0-.78A3.88,3.88,0,0,0,351.93,175.37Z" style="fill:#fff"></path></g><path d="M369.72,297.8c16.57-53.67,20.3-83.48,20.3-83.48l-39.56-2.14s-6.35,54-9.12,87.09c-3,19.73-6.5,53.26-8.72,75.78a100.74,100.74,0,0,0,19.74-1.63C359.58,354.18,368.11,326.15,369.72,297.8Z" style="fill:#FFD700"></path><path d="M343.16,399.07S347,388.72,351,373.28c-4.88,1.73-10.7-2.37-16.75-1.67a237.63,237.63,0,0,1-2.88,29C333.18,401.54,340.05,400.42,343.16,399.07Z" style="fill:#7f3e3b"></path><path d="M315.86,413.44c11.26-4.08,14.63-4.05,14.27-14.7,2.52-1.17,15.12-1.67,15.12-1.67-2.47,10.79-1.85,9.69-1.21,12.33.8,3.32,2.69,8.05-1.78,8.05-2.72,0-3.72-.54-7.11-.51-3.95,0-10.13.51-18,.51C312.89,417.45,313.66,414.24,315.86,413.44Z" style="fill:#263238"></path><path d="M332.28,370c-.16,1.88-.49,6.59,0,8.3a.54.54,0,0,0,.42.4,40,40,0,0,0,18.15-.37.87.87,0,0,0,.47-.35c1.44-2.15,3-6.82,3.67-8.78a.58.58,0,0,0-.62-.8,183.28,183.28,0,0,1-21.22.82A.91.91,0,0,0,332.28,370Z" style="fill:#FFD700"></path><path d="M332.28,370c-.16,1.88-.49,6.59,0,8.3a.54.54,0,0,0,.42.4,40,40,0,0,0,18.15-.37.87.87,0,0,0,.47-.35c1.44-2.15,3-6.82,3.67-8.78a.58.58,0,0,0-.62-.8,183.28,183.28,0,0,1-21.22.82A.91.91,0,0,0,332.28,370Z" style="opacity:0.2"></path><path d="M369.25,240.82c-4.26,17.2-1.74,40.69,1.85,52.47q3.47-11.43,6.15-21.32c.06-.67.11-1.34.16-2C374.09,258.64,370.24,249.19,369.25,240.82Z" style="opacity:0.2"></path><path d="M402.75,297.8c1.29-68-8.74-86.65-8.74-86.65l-35.33,1s10.63,53.58,17.82,87.47c4.37,19.49,7.22,52.88,11.52,75.4a93.63,93.63,0,0,0,19.27-1.63C408.94,354.18,409.35,326.15,402.75,297.8Z" style="fill:#FFD700"></path><path d="M405.53,399.07a252.68,252.68,0,0,0,.37-25.79c-4.38,1.73-11.38-2.37-17.23-1.67a247.39,247.39,0,0,1,5.51,29C396.26,401.54,402.8,400.42,405.53,399.07Z" style="fill:#7f3e3b"></path><path d="M382,413c10.39-4.09,13-3.6,10.41-14.25,2.27-1.17,14.76-1.67,14.76-1.67a40.59,40.59,0,0,0,1.95,13c1,3.52,2.35,7.37-1.83,7.37-2.71,0-3.78-.54-7.16-.51-4,0-8.85.51-16.69.51C379.12,417.45,379.94,413.79,382,413Z" style="fill:#263238"></path><path d="M386.22,370c.39,1.88,1.41,6.59,2.4,8.3a.84.84,0,0,0,.54.4c7.5,1.57,15,.71,18-.37a.56.56,0,0,0,.37-.35c.81-2.15,1.06-6.82,1.13-8.78a.79.79,0,0,0-.86-.8,176,176,0,0,1-21,.82A.64.64,0,0,0,386.22,370Z" style="fill:#FFD700"></path><path d="M386.22,370c.39,1.88,1.41,6.59,2.4,8.3a.84.84,0,0,0,.54.4c7.5,1.57,15,.71,18-.37a.56.56,0,0,0,.37-.35c.81-2.15,1.06-6.82,1.13-8.78a.79.79,0,0,0-.86-.8,176,176,0,0,1-21,.82A.64.64,0,0,0,386.22,370Z" style="opacity:0.2"></path><path d="M335.31,169.64c2.39,9.13-2.4,16.9,6.55,20.3-.68,7.2,5.57,28.55,7,32.81,5,2.08,26.95-1.52,46.12-11.26-1.11-8.05-9.54-29.73-10.44-56.38a10.41,10.41,0,0,0-11.84-10c-1.64.23-3.36.51-5.12.85a130.47,130.47,0,0,0-18.16,4.44c-1.92.66-3.88,1.4-5.75,2.14A14.29,14.29,0,0,0,335.31,169.64Z" style="fill:#263238"></path><g style="opacity:0.4"><path d="M369.72,158.89a2.59,2.59,0,0,0-.48,0,2.37,2.37,0,0,0-1.66,1.1,2.68,2.68,0,0,0-.21,2.23,3.48,3.48,0,0,0,3.74,2.42,2.35,2.35,0,0,0,1.65-1.1,2.68,2.68,0,0,0,.22-2.23A3.54,3.54,0,0,0,369.72,158.89Z" style="fill:none"></path><path d="M355.38,204.72a2.72,2.72,0,0,0-.22,2.23,3.48,3.48,0,0,0,3.75,2.42,2.35,2.35,0,0,0,1.65-1.1,2.67,2.67,0,0,0,.22-2.22,3.55,3.55,0,0,0-3.26-2.47,3.88,3.88,0,0,0-.48,0A2.43,2.43,0,0,0,355.38,204.72Z" style="fill:none"></path><path d="M371.79,173.49a2.68,2.68,0,0,0-.22,2.23,3.46,3.46,0,0,0,3.74,2.42A2.37,2.37,0,0,0,377,177a2.67,2.67,0,0,0,.21-2.22,3.52,3.52,0,0,0-3.25-2.47,2.7,2.7,0,0,0-.49,0A2.41,2.41,0,0,0,371.79,173.49Z" style="fill:none"></path><path d="M364.56,179.2a2.68,2.68,0,0,0,.22-2.23,3.55,3.55,0,0,0-3.26-2.47,2.61,2.61,0,0,0-.48.05,2.39,2.39,0,0,0-1.66,1.09,2.69,2.69,0,0,0-.22,2.23,3.47,3.47,0,0,0,3.75,2.42A2.39,2.39,0,0,0,364.56,179.2Z" style="fill:none"></path><path d="M360.35,165.73a2.67,2.67,0,0,0,.22-2.22,3.54,3.54,0,0,0-3.25-2.47,3.89,3.89,0,0,0-.49,0,2.39,2.39,0,0,0-1.65,1.1,2.68,2.68,0,0,0-.22,2.23,3.46,3.46,0,0,0,3.74,2.42A2.33,2.33,0,0,0,360.35,165.73Z" style="fill:none"></path><path d="M381.39,188.28a3.55,3.55,0,0,0-3.26-2.47,2.61,2.61,0,0,0-.48.05A2.39,2.39,0,0,0,376,187a2.72,2.72,0,0,0-.22,2.23,3.48,3.48,0,0,0,3.75,2.42,2.37,2.37,0,0,0,1.65-1.09A2.68,2.68,0,0,0,381.39,188.28Z" style="fill:none"></path><path d="M348.63,176.7a2.37,2.37,0,0,0-1.66,1.1,2.72,2.72,0,0,0-.21,2.23,3.48,3.48,0,0,0,3.74,2.42,2.41,2.41,0,0,0,1.65-1.1,2.68,2.68,0,0,0,.22-2.23,3.54,3.54,0,0,0-3.26-2.46A2.59,2.59,0,0,0,348.63,176.7Z" style="fill:none"></path><path d="M367.11,193.76a2.39,2.39,0,0,0,1.65-1.1,2.68,2.68,0,0,0,.22-2.23,3.53,3.53,0,0,0-3.25-2.46,2.63,2.63,0,0,0-.49,0,2.33,2.33,0,0,0-1.65,1.1,2.67,2.67,0,0,0-.22,2.22A3.48,3.48,0,0,0,367.11,193.76Z" style="fill:none"></path><path d="M356.36,194.81a2.72,2.72,0,0,0,.22-2.23,3.54,3.54,0,0,0-3.26-2.46,2.7,2.7,0,0,0-.49,0,2.41,2.41,0,0,0-1.65,1.1,2.68,2.68,0,0,0-.22,2.23,3.47,3.47,0,0,0,3.74,2.42A2.37,2.37,0,0,0,356.36,194.81Z" style="fill:none"></path><path d="M371.32,207.22a2.37,2.37,0,0,0,1.65-1.1,2.68,2.68,0,0,0,.22-2.23,3.54,3.54,0,0,0-3.26-2.46,2.77,2.77,0,0,0-.49,0,2.37,2.37,0,0,0-1.65,1.1,2.68,2.68,0,0,0-.22,2.23A3.49,3.49,0,0,0,371.32,207.22Z" style="fill:none"></path><path d="M383.72,205.07a2.43,2.43,0,0,0,1.66-1.1,2.68,2.68,0,0,0,.21-2.23,3.53,3.53,0,0,0-3.25-2.46,2.63,2.63,0,0,0-.49,0,2.35,2.35,0,0,0-1.65,1.1,2.67,2.67,0,0,0-.22,2.22A3.48,3.48,0,0,0,383.72,205.07Z" style="fill:none"></path><path d="M348,167.89a2.72,2.72,0,0,0,.22-2.23,3.54,3.54,0,0,0-3.26-2.46,2.7,2.7,0,0,0-.49,0,2.35,2.35,0,0,0-1.65,1.1,2.67,2.67,0,0,0-.22,2.22,3.48,3.48,0,0,0,3.74,2.43A2.43,2.43,0,0,0,348,167.89Z" style="fill:none"></path><path d="M343.74,154.42a2.35,2.35,0,0,1-1.65,1.1,3.19,3.19,0,0,1-2.35-.56c-.14.12-.29.23-.42.36a3.87,3.87,0,0,0,2.29.79,3.66,3.66,0,0,0,.57-.05,2.89,2.89,0,0,0,2-1.35,3.19,3.19,0,0,0,.32-2.47l-.51.2A2.59,2.59,0,0,1,343.74,154.42Z" style="fill:#fff"></path><path d="M350.24,151.11A4.1,4.1,0,0,0,354,154a2.75,2.75,0,0,0,.57,0,2.91,2.91,0,0,0,2-1.35,3.24,3.24,0,0,0,.28-2.67,4,4,0,0,0-.82-1.41l-.58.15a3.44,3.44,0,0,1,.88,1.42,2.68,2.68,0,0,1-.22,2.23,2.35,2.35,0,0,1-1.65,1.1,3.49,3.49,0,0,1-3.75-2.42,2.93,2.93,0,0,1-.12-.91l-.54.17A3.14,3.14,0,0,0,350.24,151.11Z" style="fill:#fff"></path><path d="M362.62,147a3.35,3.35,0,0,0,0,2,4.1,4.1,0,0,0,3.79,2.84,3.66,3.66,0,0,0,.57-.05,2.91,2.91,0,0,0,2-1.35,3.25,3.25,0,0,0,.27-2.67,4,4,0,0,0-1.2-1.82l-.54.09-.17,0a3.61,3.61,0,0,1,1.4,1.85,2.72,2.72,0,0,1-.22,2.23,2.43,2.43,0,0,1-1.66,1.1,3.48,3.48,0,0,1-3.74-2.43,2.74,2.74,0,0,1,.09-1.94Z" style="fill:#fff"></path><path d="M375,145.09a3.44,3.44,0,0,0,.08,1.71,4.1,4.1,0,0,0,3.78,2.85,3.66,3.66,0,0,0,.57-.05,2.91,2.91,0,0,0,2-1.35s0-.09.05-.12c-.13-.14-.27-.26-.41-.39,0,.07-.06.15-.11.23a2.35,2.35,0,0,1-1.65,1.09,3.46,3.46,0,0,1-3.74-2.42,2.88,2.88,0,0,1-.07-1.48A4.81,4.81,0,0,0,375,145.09Z" style="fill:#fff"></path><path d="M335.76,167.81a2.68,2.68,0,0,1-.22,2.23,1.47,1.47,0,0,1-.1.13c.05.23.1.45.14.68a2.72,2.72,0,0,0,.42-.53,3.24,3.24,0,0,0,.28-2.67,4.12,4.12,0,0,0-1.46-2c0,.23,0,.47,0,.71A3.6,3.6,0,0,1,335.76,167.81Z" style="fill:#fff"></path><path d="M346.39,169.52a2.91,2.91,0,0,0,2-1.35,3.21,3.21,0,0,0,.27-2.67,4,4,0,0,0-4.35-2.8,2.91,2.91,0,0,0-2,1.35,3.25,3.25,0,0,0-.28,2.67,4.1,4.1,0,0,0,3.79,2.85A3.66,3.66,0,0,0,346.39,169.52Zm-3.84-3a2.67,2.67,0,0,1,.22-2.22,2.35,2.35,0,0,1,1.65-1.1,2.7,2.7,0,0,1,.49,0,3.54,3.54,0,0,1,3.26,2.46,2.72,2.72,0,0,1-.22,2.23,2.43,2.43,0,0,1-1.66,1.1A3.48,3.48,0,0,1,342.55,166.56Z" style="fill:#fff"></path><path d="M360.82,166a3.29,3.29,0,0,0,.27-2.67,4,4,0,0,0-4.35-2.8,2.91,2.91,0,0,0-2,1.35,3.29,3.29,0,0,0-.27,2.67,4.09,4.09,0,0,0,3.78,2.84,3.64,3.64,0,0,0,.57,0A2.91,2.91,0,0,0,360.82,166ZM355,164.41a2.68,2.68,0,0,1,.22-2.23,2.39,2.39,0,0,1,1.65-1.1,3.89,3.89,0,0,1,.49,0,3.54,3.54,0,0,1,3.25,2.47,2.67,2.67,0,0,1-.22,2.22,2.33,2.33,0,0,1-1.65,1.1A3.46,3.46,0,0,1,355,164.41Z" style="fill:#fff"></path><path d="M369.15,158.4a2.91,2.91,0,0,0-2,1.35,3.28,3.28,0,0,0-.27,2.67,4.1,4.1,0,0,0,3.78,2.84,2.75,2.75,0,0,0,.57,0,2.89,2.89,0,0,0,2-1.35,3.21,3.21,0,0,0,.28-2.67A4,4,0,0,0,369.15,158.4Zm3.61,5.18a2.35,2.35,0,0,1-1.65,1.1,3.48,3.48,0,0,1-3.74-2.42,2.68,2.68,0,0,1,.21-2.23,2.37,2.37,0,0,1,1.66-1.1,2.59,2.59,0,0,1,.48,0,3.54,3.54,0,0,1,3.26,2.46A2.68,2.68,0,0,1,372.76,163.58Z" style="fill:#fff"></path><path d="M381.64,156.78a2.77,2.77,0,0,1,.49,0,3.44,3.44,0,0,1,2.5,1.17l0-.78a3.88,3.88,0,0,0-3.05-.89,2.91,2.91,0,0,0-2,1.35,3.25,3.25,0,0,0-.28,2.67,4.11,4.11,0,0,0,3.79,2.85,3.66,3.66,0,0,0,.57-.05,3,3,0,0,0,1.34-.6c0-.23,0-.45-.05-.68a2.44,2.44,0,0,1-1.39.75,3.48,3.48,0,0,1-3.74-2.43,2.67,2.67,0,0,1,.22-2.22A2.37,2.37,0,0,1,381.64,156.78Z" style="fill:#fff"></path><path d="M338.18,185.14a2.93,2.93,0,0,0,2-1.36,3.21,3.21,0,0,0,.27-2.67,4,4,0,0,0-4.35-2.79h-.05v.56l.14,0a2.63,2.63,0,0,1,.49,0,3.53,3.53,0,0,1,3.25,2.47,2.7,2.7,0,0,1-.21,2.22,2.37,2.37,0,0,1-1.66,1.1,3,3,0,0,1-1.61-.18l.18.62a3.47,3.47,0,0,0,.95.14A3.64,3.64,0,0,0,338.18,185.14Z" style="fill:#fff"></path><path d="M348.54,176.17a2.91,2.91,0,0,0-2,1.35,3.28,3.28,0,0,0-.27,2.67A4.1,4.1,0,0,0,350,183a3.66,3.66,0,0,0,.57-.05,2.89,2.89,0,0,0,2-1.35,3.21,3.21,0,0,0,.28-2.67A4,4,0,0,0,348.54,176.17Zm3.83,3a2.68,2.68,0,0,1-.22,2.23,2.41,2.41,0,0,1-1.65,1.1,3.48,3.48,0,0,1-3.74-2.42,2.72,2.72,0,0,1,.21-2.23,2.37,2.37,0,0,1,1.66-1.1,2.59,2.59,0,0,1,.48,0A3.54,3.54,0,0,1,352.37,179.12Z" style="fill:#fff"></path><path d="M363,180.83a2.91,2.91,0,0,0,2-1.35,3.25,3.25,0,0,0,.28-2.67,4.06,4.06,0,0,0-4.36-2.8,2.91,2.91,0,0,0-2,1.35,3.21,3.21,0,0,0-.27,2.67,4.09,4.09,0,0,0,3.78,2.85A3.66,3.66,0,0,0,363,180.83Zm-3.84-3a2.69,2.69,0,0,1,.22-2.23,2.39,2.39,0,0,1,1.66-1.09,2.61,2.61,0,0,1,.48-.05,3.55,3.55,0,0,1,3.26,2.47,2.68,2.68,0,0,1-.22,2.23,2.39,2.39,0,0,1-1.65,1.09A3.47,3.47,0,0,1,359.16,177.87Z" style="fill:#fff"></path><path d="M371.33,173.21a3.25,3.25,0,0,0-.28,2.67,4.1,4.1,0,0,0,3.79,2.84,3.43,3.43,0,0,0,.56,0,2.91,2.91,0,0,0,2-1.35,3.31,3.31,0,0,0,.27-2.68,4,4,0,0,0-4.35-2.79A2.91,2.91,0,0,0,371.33,173.21Zm2.6-.86a3.52,3.52,0,0,1,3.25,2.47A2.67,2.67,0,0,1,377,177a2.37,2.37,0,0,1-1.66,1.1,3.46,3.46,0,0,1-3.74-2.42,2.68,2.68,0,0,1,.22-2.23,2.41,2.41,0,0,1,1.65-1.1A2.7,2.7,0,0,1,373.93,172.35Z" style="fill:#fff"></path><path d="M386.68,176a3.55,3.55,0,0,1-2.7-2.4,2.68,2.68,0,0,1,.22-2.23,2.34,2.34,0,0,1,1.61-1.09c0-.18-.05-.36-.07-.54a2.93,2.93,0,0,0-2,1.35,3.28,3.28,0,0,0-.27,2.67,4.13,4.13,0,0,0,3.32,2.8C386.75,176.34,386.71,176.16,386.68,176Z" style="fill:#fff"></path><path d="M344.69,194.58a4.14,4.14,0,0,0-2.86-2.71c0,.18,0,.37,0,.56a3.59,3.59,0,0,1,2.32,2.31A2.69,2.69,0,0,1,344,197a2.32,2.32,0,0,1-1.4,1l.09.54a2.91,2.91,0,0,0,1.77-1.28A3.25,3.25,0,0,0,344.69,194.58Z" style="fill:#fff"></path><path d="M354.79,196.44a2.91,2.91,0,0,0,2-1.35,3.28,3.28,0,0,0,.27-2.67,4,4,0,0,0-4.35-2.79,2.91,2.91,0,0,0-2,1.35,3.21,3.21,0,0,0-.28,2.67,4.1,4.1,0,0,0,3.79,2.84A2.59,2.59,0,0,0,354.79,196.44ZM351,193.49a2.68,2.68,0,0,1,.22-2.23,2.41,2.41,0,0,1,1.65-1.1,2.7,2.7,0,0,1,.49,0,3.54,3.54,0,0,1,3.26,2.46,2.72,2.72,0,0,1-.22,2.23,2.37,2.37,0,0,1-1.66,1.1A3.47,3.47,0,0,1,351,193.49Z" style="fill:#fff"></path><path d="M366.63,194.34a3.66,3.66,0,0,0,.57-.05,2.91,2.91,0,0,0,2-1.35,3.29,3.29,0,0,0,.27-2.67,4,4,0,0,0-4.35-2.8,2.93,2.93,0,0,0-2,1.36,3.21,3.21,0,0,0-.27,2.67A4.1,4.1,0,0,0,366.63,194.34Zm-3-5.23a2.33,2.33,0,0,1,1.65-1.1,2.63,2.63,0,0,1,.49,0,3.53,3.53,0,0,1,3.25,2.46,2.68,2.68,0,0,1-.22,2.23,2.39,2.39,0,0,1-1.65,1.1,3.48,3.48,0,0,1-3.74-2.43A2.67,2.67,0,0,1,363.59,189.11Z" style="fill:#fff"></path><path d="M381.63,190.79a3.25,3.25,0,0,0,.28-2.67,4,4,0,0,0-4.36-2.8,2.91,2.91,0,0,0-2,1.35,3.25,3.25,0,0,0-.27,2.67,4.1,4.1,0,0,0,3.78,2.85,3.66,3.66,0,0,0,.57-.05A2.91,2.91,0,0,0,381.63,190.79Zm-2.11.81a3.48,3.48,0,0,1-3.75-2.42A2.72,2.72,0,0,1,376,187a2.39,2.39,0,0,1,1.66-1.09,2.61,2.61,0,0,1,.48-.05,3.55,3.55,0,0,1,3.26,2.47,2.68,2.68,0,0,1-.22,2.23A2.37,2.37,0,0,1,379.52,191.6Z" style="fill:#fff"></path><path d="M389.45,189.43c-.06-.26-.13-.52-.19-.79a3.52,3.52,0,0,1-1.08-1.61,2.66,2.66,0,0,1,.22-2.22l-.15-.69a2.5,2.5,0,0,0-.31.4,3.24,3.24,0,0,0-.28,2.67A4.12,4.12,0,0,0,389.45,189.43Z" style="fill:#fff"></path><path d="M346.59,212.06a2.91,2.91,0,0,0,2-1.35,3.29,3.29,0,0,0,.27-2.67,4,4,0,0,0-4.35-2.8,3.62,3.62,0,0,0-.47.13l.12.53a2.2,2.2,0,0,1,.44-.12,2.63,2.63,0,0,1,.49,0,3.53,3.53,0,0,1,3.25,2.46,2.68,2.68,0,0,1-.22,2.23,2.39,2.39,0,0,1-1.65,1.1,3,3,0,0,1-.9,0l.15.55.27,0A3.66,3.66,0,0,0,346.59,212.06Z" style="fill:#fff"></path><path d="M354.92,204.44a3.29,3.29,0,0,0-.27,2.67,4.1,4.1,0,0,0,3.78,2.85,3.66,3.66,0,0,0,.57-.05,2.89,2.89,0,0,0,2-1.35,3.25,3.25,0,0,0,.28-2.67,4.05,4.05,0,0,0-4.35-2.8A2.91,2.91,0,0,0,354.92,204.44Zm2.6-.86a3.55,3.55,0,0,1,3.26,2.47,2.67,2.67,0,0,1-.22,2.22,2.35,2.35,0,0,1-1.65,1.1,3.48,3.48,0,0,1-3.75-2.42,2.72,2.72,0,0,1,.22-2.23,2.43,2.43,0,0,1,1.66-1.1A3.88,3.88,0,0,1,357.52,203.58Z" style="fill:#fff"></path><path d="M370.84,207.8a2.75,2.75,0,0,0,.57-.05,2.91,2.91,0,0,0,2-1.35,3.24,3.24,0,0,0,.28-2.67,4.05,4.05,0,0,0-4.36-2.79,2.91,2.91,0,0,0-2,1.35,3.24,3.24,0,0,0-.28,2.67A4.12,4.12,0,0,0,370.84,207.8Zm-3-5.23a2.37,2.37,0,0,1,1.65-1.1,2.77,2.77,0,0,1,.49,0,3.54,3.54,0,0,1,3.26,2.46,2.68,2.68,0,0,1-.22,2.23,2.37,2.37,0,0,1-1.65,1.1,3.49,3.49,0,0,1-3.75-2.42A2.68,2.68,0,0,1,367.79,202.57Z" style="fill:#fff"></path><path d="M383.24,205.65a3.55,3.55,0,0,0,.57-.05,2.91,2.91,0,0,0,2-1.35,3.21,3.21,0,0,0,.27-2.67,4,4,0,0,0-4.35-2.8,2.89,2.89,0,0,0-2,1.35,3.25,3.25,0,0,0-.28,2.67A4.1,4.1,0,0,0,383.24,205.65Zm-3-5.23a2.35,2.35,0,0,1,1.65-1.1,2.63,2.63,0,0,1,.49,0,3.53,3.53,0,0,1,3.25,2.46,2.68,2.68,0,0,1-.21,2.23,2.43,2.43,0,0,1-1.66,1.1,3.48,3.48,0,0,1-3.74-2.43A2.67,2.67,0,0,1,380.2,200.42Z" style="fill:#fff"></path><path d="M391.83,198.76a3.38,3.38,0,0,0,0,1.89,3.92,3.92,0,0,0,.86,1.48C392.45,201.06,392.14,199.94,391.83,198.76Z" style="fill:#fff"></path><path d="M348.74,218.71a2.79,2.79,0,0,0-1,.39c.05.17.1.36.16.53a2.31,2.31,0,0,1,1-.39,2.59,2.59,0,0,1,.48,0,3.54,3.54,0,0,1,3.26,2.46,2.82,2.82,0,0,1,0,1.65h.54a3.42,3.42,0,0,0,0-1.82A4,4,0,0,0,348.74,218.71Z" style="fill:#fff"></path><path d="M364.59,222l.73-.15a3.2,3.2,0,0,0,.18-2.46,4,4,0,0,0-4.35-2.8,2.91,2.91,0,0,0-2,1.35,3.25,3.25,0,0,0-.28,2.67,4.17,4.17,0,0,0,1.58,2.12l.84-.13a3.59,3.59,0,0,1-1.9-2.15,2.69,2.69,0,0,1,.22-2.23,2.37,2.37,0,0,1,1.65-1.09,2.7,2.7,0,0,1,.49,0,3.54,3.54,0,0,1,3.26,2.46,2.72,2.72,0,0,1-.22,2.23A1.92,1.92,0,0,1,364.59,222Z" style="fill:#fff"></path><path d="M378.06,218.42a3.49,3.49,0,0,0-.15-1.23,4,4,0,0,0-4.35-2.79,2.91,2.91,0,0,0-2,1.35,3.29,3.29,0,0,0-.27,2.67,4.1,4.1,0,0,0,1.08,1.71L373,220a3.53,3.53,0,0,1-1.19-1.7A2.68,2.68,0,0,1,372,216a2.39,2.39,0,0,1,1.65-1.1,3.88,3.88,0,0,1,.48,0,3.54,3.54,0,0,1,3.26,2.47,2.92,2.92,0,0,1,.12,1.23Z" style="fill:#fff"></path><path d="M386,212.25a2.91,2.91,0,0,0-2,1.35,3.28,3.28,0,0,0-.27,2.67.94.94,0,0,0,.06.15l.51-.19-.06-.12a2.68,2.68,0,0,1,.22-2.23,2.37,2.37,0,0,1,1.66-1.1,2.59,2.59,0,0,1,.48,0,3.49,3.49,0,0,1,2.72,1.43l.5-.22A4,4,0,0,0,386,212.25Z" style="fill:#fff"></path></g><path d="M387.71,153.75c.82.57,1.44,1,2.14,1.52s1.33,1,2,1.51c1.31,1,2.57,2.1,3.82,3.19a78.87,78.87,0,0,1,7.14,7.14c1.12,1.29,2.22,2.64,3.27,4.06a49.73,49.73,0,0,1,2.95,4.57,27.84,27.84,0,0,1,3.8,11.59l0,.42a4.77,4.77,0,0,1-.14,1.61,29.86,29.86,0,0,1-3,7.12,48,48,0,0,1-3.85,5.75,66.28,66.28,0,0,1-4.35,5.05,56.86,56.86,0,0,1-4.85,4.54,3.72,3.72,0,0,1-5.67-4.56l.08-.15,2.75-5.36c.9-1.79,1.78-3.56,2.57-5.33s1.53-3.52,2.13-5.2a21.26,21.26,0,0,0,1.16-4.61l-.11,2A16.89,16.89,0,0,0,397,183a46.74,46.74,0,0,0-5-6.07c-1.91-2-4-3.92-6.13-5.77-1.07-.94-2.18-1.84-3.28-2.75l-1.67-1.32c-.54-.43-1.16-.9-1.59-1.22l-.16-.12a7.38,7.38,0,0,1,8.57-12Z" style="fill:#7f3e3b"></path><path d="M360.37,150.67c1.95,7.48,19.41,18.4,19.41,18.4s14.31-5,15.29-11.95c-1.56-2.39-6.58-9.1-13.5-11.26C375.4,143.93,366,144.15,360.37,150.67Z" style="fill:#263238"></path><g style="opacity:0.4"><path d="M372.13,148.54a2.68,2.68,0,0,0-.11,2.24,3.48,3.48,0,0,0,3.85,2.24,2.4,2.4,0,0,0,1.6-1.18,2.66,2.66,0,0,0,.11-2.23,3.53,3.53,0,0,0-3.23-2.31,3.26,3.26,0,0,0-.62.06A2.4,2.4,0,0,0,372.13,148.54Z" style="fill:none"></path><path d="M377,161.79a2.65,2.65,0,0,0-.11,2.23,3.48,3.48,0,0,0,3.85,2.24,2.32,2.32,0,0,0,1.6-1.17,2.72,2.72,0,0,0,.12-2.24,3.56,3.56,0,0,0-3.23-2.31,2.7,2.7,0,0,0-.63.07A2.4,2.4,0,0,0,377,161.79Z" style="fill:none"></path><path d="M360.5,150.53a2.51,2.51,0,0,1,.94-.42,2.62,2.62,0,0,1,.62-.07,3.55,3.55,0,0,1,3.23,2.31,2.65,2.65,0,0,1-.11,2.23,2.37,2.37,0,0,1-1.6,1.18l-.16,0,.4.47a2.93,2.93,0,0,0,1.84-1.41,3.23,3.23,0,0,0,.14-2.68,4,4,0,0,0-4.39-2.59C361.1,149.87,360.8,150.19,360.5,150.53Z" style="fill:#fff"></path><path d="M373.61,146.84a2.87,2.87,0,0,0-1.95,1.44,3.24,3.24,0,0,0-.15,2.68,4.12,4.12,0,0,0,3.75,2.67,3.63,3.63,0,0,0,.73-.08,3,3,0,0,0,2-1.45,3.24,3.24,0,0,0,.14-2.68A4,4,0,0,0,373.61,146.84Zm4,2.77a2.66,2.66,0,0,1-.11,2.23,2.4,2.4,0,0,1-1.6,1.18,3.48,3.48,0,0,1-3.85-2.24,2.68,2.68,0,0,1,.11-2.24,2.4,2.4,0,0,1,1.6-1.18,3.26,3.26,0,0,1,.62-.06A3.53,3.53,0,0,1,377.58,149.61Z" style="fill:#fff"></path><path d="M383.8,148.22a4.11,4.11,0,0,0,3.75,2.66,3,3,0,0,0,.73-.08,3.15,3.15,0,0,0,1-.4l-.44-.37a2.73,2.73,0,0,1-.64.24,3.47,3.47,0,0,1-3.85-2.24,3.07,3.07,0,0,1-.19-1.14l-.51-.23A3.52,3.52,0,0,0,383.8,148.22Z" style="fill:#fff"></path><path d="M378.46,160.08a2.9,2.9,0,0,0-2,1.45,3.2,3.2,0,0,0-.15,2.68,4.12,4.12,0,0,0,3.75,2.66,3,3,0,0,0,.73-.08,2.91,2.91,0,0,0,2-1.44,3.28,3.28,0,0,0,.15-2.68A4,4,0,0,0,378.46,160.08Zm4,2.77a2.72,2.72,0,0,1-.12,2.24,2.32,2.32,0,0,1-1.6,1.17,3.48,3.48,0,0,1-3.85-2.24,2.65,2.65,0,0,1,.11-2.23,2.4,2.4,0,0,1,1.6-1.18,2.7,2.7,0,0,1,.63-.07A3.56,3.56,0,0,1,382.43,162.85Z" style="fill:#fff"></path><path d="M390.75,157.34a2.89,2.89,0,0,0-2,1.44,3.2,3.2,0,0,0-.15,2.68,4.18,4.18,0,0,0,1.72,2.07l.46-.36a3.57,3.57,0,0,1-1.67-1.89,2.68,2.68,0,0,1,.11-2.24,2.36,2.36,0,0,1,1.6-1.17,2.7,2.7,0,0,1,.63-.07,3.53,3.53,0,0,1,2.8,1.52c.1-.17.19-.35.28-.54A4,4,0,0,0,390.75,157.34Z" style="fill:#fff"></path></g><path d="M351.33,161s8.76-5.82,14.11-1.71c9.39-12.89,4.39-16.44,2.11-13.33C359.14,149.27,351.33,161,351.33,161Z" style="fill:#fff"></path><path d="M351.33,161s-5.14-2.65-6.76-.32c-.77-7.87,2.65-11.11,4.17-10.05C348.17,152.8,351.33,161,351.33,161Z" style="fill:#fff"></path><path d="M363.12,125.41c0,6.2.89,16.08,4.43,20.59a86.35,86.35,0,0,1-16.22,15c-3.69-6.56-2.59-10.37-2.59-10.37,4.32-2.2,3.68-7.95,2.61-12.29Z" style="fill:#7f3e3b"></path><path d="M351.35,138.38,358,131a7.22,7.22,0,0,1,.15,3.73,15.65,15.65,0,0,1-6.05,8.85A25.4,25.4,0,0,0,351.35,138.38Z" style="opacity:0.2"></path><path d="M364.31,113.77c0,10.06.27,14.31-4.37,19.78-7,8.22-19.1,6-22.08-3.82-2.69-8.87-2.31-23.83,7.05-28.44S364.26,103.7,364.31,113.77Z" style="fill:#7f3e3b"></path><path d="M357.7,102.72c-6.22,5.72.44,14.28,5.5,15.84S369.61,97.66,357.7,102.72Z" style="fill:#263238"></path><path d="M362,102.58c-2.67,6.25-26.45,2.92-27.27,11.59C333.31,101.25,351.81,93.17,362,102.58Z" style="fill:#263238"></path><path d="M350.25,118c.05.82-.34,1.51-.87,1.54s-1-.6-1.06-1.42.34-1.5.87-1.53S350.2,117.19,350.25,118Z" style="fill:#263238"></path><path d="M340.22,118.8c.06.82-.33,1.51-.87,1.54s-1-.6-1.06-1.42.34-1.5.87-1.54S340.17,118,340.22,118.8Z" style="fill:#263238"></path><path d="M339.4,117.41l-2-.43S338.51,118.44,339.4,117.41Z" style="fill:#263238"></path><path d="M342.72,118.87a21.71,21.71,0,0,1-2.58,5.39,3.52,3.52,0,0,0,2.95.36Z" style="fill:#630f0f"></path><path d="M348,127.33a6.92,6.92,0,0,1-1.36.21.24.24,0,0,1-.25-.22.24.24,0,0,1,.22-.26,6.48,6.48,0,0,0,5.11-2.87.25.25,0,0,1,.33-.09.25.25,0,0,1,.09.33A6.71,6.71,0,0,1,348,127.33Z" style="fill:#263238"></path><path d="M367.34,122.34a7.61,7.61,0,0,1-4.61,4.19c-2.62.75-3.94-2.11-3.23-5,.65-2.63,2.78-6.19,5.41-5.64S368.53,119.75,367.34,122.34Z" style="fill:#7f3e3b"></path><path d="M351.79,112.44a.44.44,0,0,1-.34-.17,3.86,3.86,0,0,0-3.16-1.44.48.48,0,1,1-.11-1,4.77,4.77,0,0,1,4,1.78.48.48,0,0,1-.06.67A.48.48,0,0,1,351.79,112.44Z" style="fill:#263238"></path><path d="M335.23,113.8a.47.47,0,0,1-.34-.1.48.48,0,0,1-.07-.68,4.77,4.77,0,0,1,4-1.85.48.48,0,0,1-.1,1,3.81,3.81,0,0,0-3.13,1.5A.47.47,0,0,1,335.23,113.8Z" style="fill:#263238"></path><path d="M349.43,116.63l-2-.44S348.54,117.65,349.43,116.63Z" style="fill:#263238"></path><path d="M392.28,205.67l-2.91,3.46a8.49,8.49,0,0,0-1.86,4l-.27,1.55a3.23,3.23,0,0,0,2,3.57l3.63,1.42a3.24,3.24,0,0,0,4.17-1.81l.64-1.61s3.22-5.86,2.46-11l-1.4-.44A7.29,7.29,0,0,0,392.28,205.67Z" style="fill:#7f3e3b"></path></g></svg>